<?xml version="1.0" standalone="no"?>
<!DOCTYPE svg PUBLIC "-//W3C//DTD SVG 20010904//EN"
 "http://www.w3.org/TR/2001/REC-SVG-20010904/DTD/svg10.dtd">
<svg version="1.0" xmlns="http://www.w3.org/2000/svg"
 width="2047.000000pt" height="922.000000pt" viewBox="0 0 2047.000000 922.000000"
 preserveAspectRatio="xMidYMid meet">

<g transform="translate(0.000000,922.000000) scale(0.100000,-0.100000)"
fill="#000000" stroke="none">
<path d="M8308 7720 c-69 -37 -108 -137 -88 -226 30 -135 177 -195 290 -120
116 77 103 287 -22 352 -40 21 -135 17 -180 -6z"/>
<path d="M6562 7429 c-422 -71 -682 -525 -537 -942 69 -199 237 -364 440 -433
146 -49 333 -44 483 13 l42 16 0 220 0 220 -46 -43 c-97 -89 -240 -123 -355
-85 -76 25 -169 119 -199 200 -53 141 -20 284 89 388 73 69 131 92 236 92 95
0 166 -28 233 -92 l42 -40 0 214 0 214 -45 20 c-96 43 -258 59 -383 38z"/>
<path d="M7698 7430 c-163 -28 -317 -116 -426 -244 -52 -62 -116 -187 -139
-276 -24 -90 -23 -282 1 -370 65 -238 231 -411 472 -492 59 -20 89 -23 214
-23 133 0 152 2 234 29 208 68 369 230 442 441 35 103 44 280 20 395 -19 92
-79 215 -143 295 -153 189 -423 287 -675 245z m259 -380 c62 -26 135 -100 166
-168 18 -39 22 -65 22 -152 0 -92 -3 -112 -26 -160 -57 -123 -143 -181 -275
-188 -106 -6 -166 14 -234 75 -163 146 -155 429 16 560 87 66 224 80 331 33z"/>
<path d="M10542 7430 c-261 -47 -467 -226 -549 -475 -31 -97 -42 -257 -24
-361 43 -245 228 -463 455 -535 l76 -24 0 -77 0 -78 170 0 169 0 3 76 3 76 60
22 c231 84 391 256 452 486 22 81 24 280 4 360 -20 80 -81 206 -135 277 -79
104 -226 201 -362 237 -72 20 -250 28 -322 16z m271 -384 c205 -100 250 -405
84 -573 -22 -24 -45 -43 -49 -43 -4 0 -8 36 -8 80 l0 80 -170 0 -169 0 -3 -86
-3 -85 -42 36 c-138 118 -151 376 -27 514 74 82 149 113 261 107 52 -2 86 -10
126 -30z"/>
<path d="M8680 6730 l0 -690 178 2 177 3 3 382 2 383 381 -405 c210 -223 383
-405 385 -405 2 0 4 320 4 710 l0 710 -177 -2 -178 -3 -5 -234 -5 -234 -232
237 -232 236 -150 0 -151 0 0 -690z"/>
<path d="M11531 6933 c0 -545 2 -566 69 -677 134 -223 429 -302 678 -180 67
33 168 131 204 200 56 105 58 125 58 656 l0 488 -180 0 -179 0 -3 -474 c-3
-461 -4 -475 -24 -502 -68 -92 -170 -92 -238 0 -20 27 -21 41 -24 502 l-3 474
-179 0 -180 0 1 -487z"/>
<path d="M12760 6730 l0 -690 445 0 445 0 0 180 0 180 -265 0 -265 0 0 85 0
85 250 0 250 0 0 160 0 160 -247 2 -248 3 -3 82 -3 83 263 2 263 3 0 175 0
175 -442 3 -443 2 0 -690z"/>
<path d="M13860 6731 l0 -691 180 0 180 0 0 175 0 175 68 0 c98 0 140 -15 193
-69 55 -54 69 -95 69 -204 l0 -77 183 2 182 3 3 85 c7 189 -54 336 -165 398
-16 9 -13 15 28 54 215 202 169 573 -92 747 -117 78 -151 84 -511 89 l-318 4
0 -691z m595 316 c52 -29 85 -87 85 -150 0 -55 -16 -91 -57 -128 -40 -37 -84
-49 -179 -49 l-84 0 0 175 0 175 98 0 c82 0 103 -4 137 -23z"/>
<path d="M6027 5813 c-4 -3 -7 -78 -7 -165 l0 -158 2160 0 2160 0 0 165 0 165
-2153 0 c-1185 0 -2157 -3 -2160 -7z"/>
<path d="M11027 5813 c-4 -3 -7 -78 -7 -165 l0 -158 1950 0 1950 0 -2 163 -3
162 -1941 3 c-1067 1 -1944 -1 -1947 -5z"/>
<path d="M9030 4834 c-14 -2 -59 -9 -100 -15 -344 -49 -671 -211 -923 -458
-274 -267 -452 -634 -497 -1020 -18 -151 -8 -428 20 -566 68 -342 218 -624
465 -871 241 -243 510 -388 849 -460 165 -35 457 -44 624 -20 582 86 1049 427
1296 947 105 221 154 433 163 699 27 856 -521 1561 -1351 1736 -101 21 -154
26 -321 29 -110 2 -211 2 -225 -1z m390 -885 c271 -68 477 -278 562 -574 20
-70 23 -102 22 -255 0 -162 -2 -182 -28 -265 -88 -287 -284 -484 -555 -557
-109 -29 -305 -29 -415 1 -329 88 -547 361 -586 731 -10 106 0 246 26 345 26
95 107 253 169 328 125 150 322 251 530 270 68 7 197 -5 275 -24z"/>
<path d="M12640 4834 c-19 -3 -83 -14 -143 -25 -336 -62 -638 -228 -888 -486
-431 -446 -583 -1090 -404 -1708 74 -254 220 -498 420 -701 262 -266 557 -417
945 -485 111 -20 431 -17 550 4 125 23 247 58 353 103 l87 36 0 534 0 534 -42
-47 c-136 -149 -290 -245 -473 -294 -114 -31 -281 -31 -389 0 -223 62 -411
221 -516 436 -56 115 -80 211 -87 345 -12 245 66 455 236 633 168 176 355 258
586 259 245 1 469 -97 630 -274 l55 -61 0 521 0 521 -47 21 c-88 40 -277 99
-368 116 -87 16 -424 28 -505 18z"/>
<path d="M2300 3125 l0 -1655 698 0 c447 0 729 4 787 11 476 58 856 421 936
893 16 95 6 302 -19 391 -44 160 -130 310 -235 413 l-55 54 53 69 c58 78 113
182 145 279 33 97 38 274 12 401 -76 368 -337 650 -707 766 l-90 28 -762 3
-763 3 0 -1656z m1305 816 c73 -34 117 -106 117 -191 -1 -59 -13 -89 -54 -135
-53 -61 -72 -65 -303 -65 l-205 0 0 205 0 205 203 0 c175 0 207 -3 242 -19z
m50 -1134 c91 -40 165 -151 165 -247 0 -65 -35 -143 -86 -190 -74 -68 -84 -70
-344 -70 l-230 0 0 258 c0 142 3 262 7 266 5 4 107 6 228 4 184 -3 227 -6 260
-21z"/>
<path d="M5200 3125 l0 -1655 1035 0 1035 0 0 410 0 410 -590 0 -590 0 0 1245
0 1245 -445 0 -445 0 0 -1655z"/>
<path d="M14020 3125 l0 -1655 443 2 442 3 5 485 5 485 43 63 c24 35 47 61 50
57 4 -3 135 -250 292 -548 l285 -542 544 -3 c510 -2 543 -1 537 15 -4 9 -242
425 -530 923 -288 498 -528 915 -534 926 -11 20 39 93 493 728 278 388 505
708 505 711 0 3 -235 5 -522 5 l-523 0 -320 -504 -320 -504 -3 504 -2 504
-445 0 -445 0 0 -1655z"/>
<path d="M17554 4760 c-319 -72 -594 -302 -722 -605 -216 -511 19 -1105 533
-1346 160 -75 200 -81 555 -88 370 -7 379 -10 444 -105 70 -103 1 -244 -134
-275 -28 -7 -282 -11 -683 -11 l-637 0 2 -427 3 -428 745 0 745 1 97 26 c182
50 330 133 464 260 175 167 291 387 325 618 16 111 7 303 -19 402 -99 370
-385 655 -760 755 -92 25 -112 26 -397 30 -165 2 -315 6 -333 9 -37 6 -96 54
-118 95 -31 62 -9 174 44 222 49 45 67 46 660 47 l562 0 0 420 0 420 -647 -1
c-591 -1 -655 -2 -729 -19z"/>
</g>
</svg>
